<svg width="224" height="35" viewBox="0 0 224 35" fill="none" xmlns="http://www.w3.org/2000/svg">
<g filter="url(#filter0_i_44_2177)">
<path d="M19.0234 19.5664H24.8633C24.7461 21.4805 24.2188 23.1797 23.2812 24.6641C22.3568 26.1484 21.0612 27.3073 19.3945 28.1406C17.7409 28.974 15.7487 29.3906 13.418 29.3906C11.5951 29.3906 9.96094 29.0781 8.51562 28.4531C7.07031 27.8151 5.83333 26.9036 4.80469 25.7188C3.78906 24.5339 3.01432 23.1016 2.48047 21.4219C1.94661 19.7422 1.67969 17.8607 1.67969 15.7773V13.8047C1.67969 11.7214 1.95312 9.83984 2.5 8.16016C3.0599 6.46745 3.85417 5.02865 4.88281 3.84375C5.92448 2.65885 7.16797 1.7474 8.61328 1.10938C10.0586 0.471354 11.6732 0.152344 13.457 0.152344C15.8268 0.152344 17.8255 0.582031 19.4531 1.44141C21.0938 2.30078 22.3633 3.48568 23.2617 4.99609C24.1732 6.50651 24.7201 8.22526 24.9023 10.1523H19.043C18.9779 9.00651 18.75 8.03646 18.3594 7.24219C17.9688 6.4349 17.3763 5.82943 16.582 5.42578C15.8008 5.00911 14.7591 4.80078 13.457 4.80078C12.4805 4.80078 11.6276 4.98307 10.8984 5.34766C10.1693 5.71224 9.55729 6.26562 9.0625 7.00781C8.56771 7.75 8.19661 8.6875 7.94922 9.82031C7.71484 10.9401 7.59766 12.2552 7.59766 13.7656V15.7773C7.59766 17.2487 7.70833 18.5443 7.92969 19.6641C8.15104 20.7708 8.48958 21.7083 8.94531 22.4766C9.41406 23.2318 10.013 23.8047 10.7422 24.1953C11.4844 24.5729 12.3763 24.7617 13.418 24.7617C14.6419 24.7617 15.651 24.5664 16.4453 24.1758C17.2396 23.7852 17.8451 23.2057 18.2617 22.4375C18.6914 21.6693 18.9453 20.7122 19.0234 19.5664ZM52.0703 14.1172V15.4648C52.0703 17.6263 51.7773 19.5664 51.1914 21.2852C50.6055 23.0039 49.7786 24.4688 48.7109 25.6797C47.6432 26.8776 46.3672 27.7956 44.8828 28.4336C43.4115 29.0716 41.7773 29.3906 39.9805 29.3906C38.1966 29.3906 36.5625 29.0716 35.0781 28.4336C33.6068 27.7956 32.3307 26.8776 31.25 25.6797C30.1693 24.4688 29.3294 23.0039 28.7305 21.2852C28.1445 19.5664 27.8516 17.6263 27.8516 15.4648V14.1172C27.8516 11.9427 28.1445 10.0026 28.7305 8.29688C29.3164 6.57812 30.1432 5.11328 31.2109 3.90234C32.2917 2.69141 33.5677 1.76693 35.0391 1.12891C36.5234 0.490885 38.1576 0.171875 39.9414 0.171875C41.7383 0.171875 43.3724 0.490885 44.8438 1.12891C46.3281 1.76693 47.6042 2.69141 48.6719 3.90234C49.7526 5.11328 50.5859 6.57812 51.1719 8.29688C51.7708 10.0026 52.0703 11.9427 52.0703 14.1172ZM46.1523 15.4648V14.0781C46.1523 12.5677 46.0156 11.2396 45.7422 10.0938C45.4688 8.94792 45.0651 7.98438 44.5312 7.20312C43.9974 6.42188 43.3464 5.83594 42.5781 5.44531C41.8099 5.04167 40.931 4.83984 39.9414 4.83984C38.9518 4.83984 38.0729 5.04167 37.3047 5.44531C36.5495 5.83594 35.9049 6.42188 35.3711 7.20312C34.8503 7.98438 34.4531 8.94792 34.1797 10.0938C33.9062 11.2396 33.7695 12.5677 33.7695 14.0781V15.4648C33.7695 16.9622 33.9062 18.2904 34.1797 19.4492C34.4531 20.5951 34.8568 21.5651 35.3906 22.3594C35.9245 23.1406 36.5755 23.7331 37.3438 24.1367C38.112 24.5404 38.9909 24.7422 39.9805 24.7422C40.9701 24.7422 41.849 24.5404 42.6172 24.1367C43.3854 23.7331 44.0299 23.1406 44.5508 22.3594C45.0716 21.5651 45.4688 20.5951 45.7422 19.4492C46.0156 18.2904 46.1523 16.9622 46.1523 15.4648ZM79.4336 0.5625V29H73.5742L62.1484 9.9375V29H56.2891V0.5625H62.1484L73.5938 19.6445V0.5625H79.4336ZM99.3359 21.5586C99.3359 21.0508 99.2578 20.5951 99.1016 20.1914C98.9583 19.7747 98.6849 19.3971 98.2812 19.0586C97.8776 18.707 97.3112 18.362 96.582 18.0234C95.8529 17.6849 94.9089 17.3333 93.75 16.9688C92.4609 16.5521 91.237 16.0833 90.0781 15.5625C88.9323 15.0417 87.9167 14.4362 87.0312 13.7461C86.1589 13.043 85.4688 12.2292 84.9609 11.3047C84.4661 10.3802 84.2188 9.30599 84.2188 8.08203C84.2188 6.89714 84.4792 5.82292 85 4.85938C85.5208 3.88281 86.25 3.04948 87.1875 2.35938C88.125 1.65625 89.2318 1.11589 90.5078 0.738281C91.7969 0.360677 93.2096 0.171875 94.7461 0.171875C96.8424 0.171875 98.6719 0.549479 100.234 1.30469C101.797 2.0599 103.008 3.09505 103.867 4.41016C104.74 5.72526 105.176 7.22917 105.176 8.92188H99.3555C99.3555 8.08854 99.1797 7.35938 98.8281 6.73438C98.4896 6.09635 97.9688 5.59505 97.2656 5.23047C96.5755 4.86589 95.7031 4.68359 94.6484 4.68359C93.6328 4.68359 92.7865 4.83984 92.1094 5.15234C91.4323 5.45182 90.9245 5.86198 90.5859 6.38281C90.2474 6.89062 90.0781 7.46354 90.0781 8.10156C90.0781 8.58333 90.1953 9.01953 90.4297 9.41016C90.6771 9.80078 91.0417 10.1654 91.5234 10.5039C92.0052 10.8424 92.5977 11.1615 93.3008 11.4609C94.0039 11.7604 94.8177 12.0534 95.7422 12.3398C97.2917 12.8086 98.6523 13.3359 99.8242 13.9219C101.009 14.5078 101.999 15.1654 102.793 15.8945C103.587 16.6237 104.186 17.4505 104.59 18.375C104.993 19.2995 105.195 20.3477 105.195 21.5195C105.195 22.7565 104.954 23.8633 104.473 24.8398C103.991 25.8164 103.294 26.6432 102.383 27.3203C101.471 27.9974 100.384 28.5117 99.1211 28.8633C97.8581 29.2148 96.4453 29.3906 94.8828 29.3906C93.4766 29.3906 92.0898 29.2083 90.7227 28.8438C89.3555 28.4661 88.112 27.8997 86.9922 27.1445C85.8854 26.3893 85 25.4258 84.3359 24.2539C83.6719 23.082 83.3398 21.6953 83.3398 20.0938H89.2188C89.2188 20.9792 89.3555 21.7279 89.6289 22.3398C89.9023 22.9518 90.2865 23.4466 90.7812 23.8242C91.2891 24.2018 91.888 24.4753 92.5781 24.6445C93.2812 24.8138 94.0495 24.8984 94.8828 24.8984C95.8984 24.8984 96.7318 24.7552 97.3828 24.4688C98.0469 24.1823 98.5352 23.7852 98.8477 23.2773C99.1732 22.7695 99.3359 22.1966 99.3359 21.5586ZM124.883 0.5625H130.723V19.3516C130.723 21.5391 130.254 23.3815 129.316 24.8789C128.392 26.3763 127.109 27.5026 125.469 28.2578C123.841 29.013 121.966 29.3906 119.844 29.3906C117.721 29.3906 115.833 29.013 114.18 28.2578C112.539 27.5026 111.25 26.3763 110.312 24.8789C109.388 23.3815 108.926 21.5391 108.926 19.3516V0.5625H114.785V19.3516C114.785 20.6276 114.987 21.6693 115.391 22.4766C115.794 23.2839 116.374 23.8763 117.129 24.2539C117.897 24.6315 118.802 24.8203 119.844 24.8203C120.911 24.8203 121.816 24.6315 122.559 24.2539C123.314 23.8763 123.887 23.2839 124.277 22.4766C124.681 21.6693 124.883 20.6276 124.883 19.3516V0.5625ZM153.828 24.4297V29H139.512V24.4297H153.828ZM141.406 0.5625V29H135.547V0.5625H141.406ZM165.449 0.5625V29H159.609V0.5625H165.449ZM174.199 0.5625V5.15234H150.996V0.5625H174.199ZM196.621 24.4297V29H181.484V24.4297H196.621ZM183.398 0.5625V29H177.539V0.5625H183.398ZM194.648 12.1445V16.5977H181.484V12.1445H194.648ZM196.602 0.5625V5.15234H181.484V0.5625H196.602ZM216.523 19.5664H222.363C222.246 21.4805 221.719 23.1797 220.781 24.6641C219.857 26.1484 218.561 27.3073 216.895 28.1406C215.241 28.974 213.249 29.3906 210.918 29.3906C209.095 29.3906 207.461 29.0781 206.016 28.4531C204.57 27.8151 203.333 26.9036 202.305 25.7188C201.289 24.5339 200.514 23.1016 199.98 21.4219C199.447 19.7422 199.18 17.8607 199.18 15.7773V13.8047C199.18 11.7214 199.453 9.83984 200 8.16016C200.56 6.46745 201.354 5.02865 202.383 3.84375C203.424 2.65885 204.668 1.7474 206.113 1.10938C207.559 0.471354 209.173 0.152344 210.957 0.152344C213.327 0.152344 215.326 0.582031 216.953 1.44141C218.594 2.30078 219.863 3.48568 220.762 4.99609C221.673 6.50651 222.22 8.22526 222.402 10.1523H216.543C216.478 9.00651 216.25 8.03646 215.859 7.24219C215.469 6.4349 214.876 5.82943 214.082 5.42578C213.301 5.00911 212.259 4.80078 210.957 4.80078C209.98 4.80078 209.128 4.98307 208.398 5.34766C207.669 5.71224 207.057 6.26562 206.562 7.00781C206.068 7.75 205.697 8.6875 205.449 9.82031C205.215 10.9401 205.098 12.2552 205.098 13.7656V15.7773C205.098 17.2487 205.208 18.5443 205.43 19.6641C205.651 20.7708 205.99 21.7083 206.445 22.4766C206.914 23.2318 207.513 23.8047 208.242 24.1953C208.984 24.5729 209.876 24.7617 210.918 24.7617C212.142 24.7617 213.151 24.5664 213.945 24.1758C214.74 23.7852 215.345 23.2057 215.762 22.4375C216.191 21.6693 216.445 20.7122 216.523 19.5664Z" fill="#F0F0F2"/>
<path d="M0 32.9062H223.672V34.8594H0V32.9062Z" fill="#F0F0F2"/>
</g>
<defs>
<filter id="filter0_i_44_2177" x="0" y="0.152344" width="223.672" height="38.707" filterUnits="userSpaceOnUse" color-interpolation-filters="sRGB">
<feFlood flood-opacity="0" result="BackgroundImageFix"/>
<feBlend mode="normal" in="SourceGraphic" in2="BackgroundImageFix" result="shape"/>
<feColorMatrix in="SourceAlpha" type="matrix" values="0 0 0 0 0 0 0 0 0 0 0 0 0 0 0 0 0 0 127 0" result="hardAlpha"/>
<feOffset dy="4"/>
<feGaussianBlur stdDeviation="2"/>
<feComposite in2="hardAlpha" operator="arithmetic" k2="-1" k3="1"/>
<feColorMatrix type="matrix" values="0 0 0 0 0 0 0 0 0 0 0 0 0 0 0 0 0 0 0.25 0"/>
<feBlend mode="normal" in2="shape" result="effect1_innerShadow_44_2177"/>
</filter>
</defs>
</svg>
