<svg width="463" height="124" viewBox="0 0 463 124" fill="none" xmlns="http://www.w3.org/2000/svg">
<g filter="url(#filter0_i_17_72)">
<path d="M38.0469 55.1328H49.7266C49.4922 58.9609 48.4375 62.3594 46.5625 65.3281C44.7135 68.2969 42.1224 70.6146 38.7891 72.2812C35.4818 73.9479 31.4974 74.7812 26.8359 74.7812C23.1901 74.7812 19.9219 74.1562 17.0312 72.9062C14.1406 71.6302 11.6667 69.8073 9.60938 67.4375C7.57812 65.0677 6.02865 62.2031 4.96094 58.8438C3.89323 55.4844 3.35938 51.7214 3.35938 47.5547V43.6094C3.35938 39.4427 3.90625 35.6797 5 32.3203C6.11979 28.9349 7.70833 26.0573 9.76562 23.6875C11.849 21.3177 14.3359 19.4948 17.2266 18.2188C20.1172 16.9427 23.3464 16.3047 26.9141 16.3047C31.6536 16.3047 35.651 17.1641 38.9062 18.8828C42.1875 20.6016 44.7266 22.9714 46.5234 25.9922C48.3464 29.013 49.4401 32.4505 49.8047 36.3047H38.0859C37.9557 34.013 37.5 32.0729 36.7188 30.4844C35.9375 28.8698 34.7526 27.6589 33.1641 26.8516C31.6016 26.0182 29.5182 25.6016 26.9141 25.6016C24.9609 25.6016 23.2552 25.9661 21.7969 26.6953C20.3385 27.4245 19.1146 28.5312 18.125 30.0156C17.1354 31.5 16.3932 33.375 15.8984 35.6406C15.4297 37.8802 15.1953 40.5104 15.1953 43.5312V47.5547C15.1953 50.4974 15.4167 53.0885 15.8594 55.3281C16.3021 57.5417 16.9792 59.4167 17.8906 60.9531C18.8281 62.4635 20.026 63.6094 21.4844 64.3906C22.9688 65.1458 24.7526 65.5234 26.8359 65.5234C29.2839 65.5234 31.3021 65.1328 32.8906 64.3516C34.4792 63.5703 35.6901 62.4115 36.5234 60.875C37.3828 59.3385 37.8906 57.4245 38.0469 55.1328ZM104.141 44.2344V46.9297C104.141 51.2526 103.555 55.1328 102.383 58.5703C101.211 62.0078 99.5573 64.9375 97.4219 67.3594C95.2865 69.7552 92.7344 71.5911 89.7656 72.8672C86.8229 74.1432 83.5547 74.7812 79.9609 74.7812C76.3932 74.7812 73.125 74.1432 70.1562 72.8672C67.2135 71.5911 64.6615 69.7552 62.5 67.3594C60.3385 64.9375 58.6589 62.0078 57.4609 58.5703C56.2891 55.1328 55.7031 51.2526 55.7031 46.9297V44.2344C55.7031 39.8854 56.2891 36.0052 57.4609 32.5938C58.6328 29.1562 60.2865 26.2266 62.4219 23.8047C64.5833 21.3828 67.1354 19.5339 70.0781 18.2578C73.0469 16.9818 76.3151 16.3438 79.8828 16.3438C83.4766 16.3438 86.7448 16.9818 89.6875 18.2578C92.6562 19.5339 95.2083 21.3828 97.3438 23.8047C99.5052 26.2266 101.172 29.1562 102.344 32.5938C103.542 36.0052 104.141 39.8854 104.141 44.2344ZM92.3047 46.9297V44.1562C92.3047 41.1354 92.0312 38.4792 91.4844 36.1875C90.9375 33.8958 90.1302 31.9688 89.0625 30.4062C87.9948 28.8438 86.6927 27.6719 85.1562 26.8906C83.6198 26.0833 81.862 25.6797 79.8828 25.6797C77.9036 25.6797 76.1458 26.0833 74.6094 26.8906C73.099 27.6719 71.8099 28.8438 70.7422 30.4062C69.7005 31.9688 68.9062 33.8958 68.3594 36.1875C67.8125 38.4792 67.5391 41.1354 67.5391 44.1562V46.9297C67.5391 49.9245 67.8125 52.5807 68.3594 54.8984C68.9062 57.1901 69.7135 59.1302 70.7812 60.7188C71.849 62.2812 73.151 63.4661 74.6875 64.2734C76.224 65.0807 77.9818 65.4844 79.9609 65.4844C81.9401 65.4844 83.6979 65.0807 85.2344 64.2734C86.7708 63.4661 88.0599 62.2812 89.1016 60.7188C90.1432 59.1302 90.9375 57.1901 91.4844 54.8984C92.0312 52.5807 92.3047 49.9245 92.3047 46.9297ZM158.867 17.125V74H147.148L124.297 35.875V74H112.578V17.125H124.297L147.188 55.2891V17.125H158.867ZM198.672 59.1172C198.672 58.1016 198.516 57.1901 198.203 56.3828C197.917 55.5495 197.37 54.7943 196.562 54.1172C195.755 53.4141 194.622 52.724 193.164 52.0469C191.706 51.3698 189.818 50.6667 187.5 49.9375C184.922 49.1042 182.474 48.1667 180.156 47.125C177.865 46.0833 175.833 44.8724 174.062 43.4922C172.318 42.0859 170.938 40.4583 169.922 38.6094C168.932 36.7604 168.438 34.612 168.438 32.1641C168.438 29.7943 168.958 27.6458 170 25.7188C171.042 23.7656 172.5 22.099 174.375 20.7188C176.25 19.3125 178.464 18.2318 181.016 17.4766C183.594 16.7214 186.419 16.3438 189.492 16.3438C193.685 16.3438 197.344 17.099 200.469 18.6094C203.594 20.1198 206.016 22.1901 207.734 24.8203C209.479 27.4505 210.352 30.4583 210.352 33.8438H198.711C198.711 32.1771 198.359 30.7188 197.656 29.4688C196.979 28.1927 195.938 27.1901 194.531 26.4609C193.151 25.7318 191.406 25.3672 189.297 25.3672C187.266 25.3672 185.573 25.6797 184.219 26.3047C182.865 26.9036 181.849 27.724 181.172 28.7656C180.495 29.7812 180.156 30.9271 180.156 32.2031C180.156 33.1667 180.391 34.0391 180.859 34.8203C181.354 35.6016 182.083 36.3307 183.047 37.0078C184.01 37.6849 185.195 38.3229 186.602 38.9219C188.008 39.5208 189.635 40.1068 191.484 40.6797C194.583 41.6172 197.305 42.6719 199.648 43.8438C202.018 45.0156 203.997 46.3307 205.586 47.7891C207.174 49.2474 208.372 50.901 209.18 52.75C209.987 54.599 210.391 56.6953 210.391 59.0391C210.391 61.513 209.909 63.7266 208.945 65.6797C207.982 67.6328 206.589 69.2865 204.766 70.6406C202.943 71.9948 200.768 73.0234 198.242 73.7266C195.716 74.4297 192.891 74.7812 189.766 74.7812C186.953 74.7812 184.18 74.4167 181.445 73.6875C178.711 72.9323 176.224 71.7995 173.984 70.2891C171.771 68.7786 170 66.8516 168.672 64.5078C167.344 62.1641 166.68 59.3906 166.68 56.1875H178.438C178.438 57.9583 178.711 59.4557 179.258 60.6797C179.805 61.9036 180.573 62.8932 181.562 63.6484C182.578 64.4036 183.776 64.9505 185.156 65.2891C186.562 65.6276 188.099 65.7969 189.766 65.7969C191.797 65.7969 193.464 65.5104 194.766 64.9375C196.094 64.3646 197.07 63.5703 197.695 62.5547C198.346 61.5391 198.672 60.3932 198.672 59.1172ZM249.766 17.125H261.445V54.7031C261.445 59.0781 260.508 62.763 258.633 65.7578C256.784 68.7526 254.219 71.0052 250.938 72.5156C247.682 74.026 243.932 74.7812 239.688 74.7812C235.443 74.7812 231.667 74.026 228.359 72.5156C225.078 71.0052 222.5 68.7526 220.625 65.7578C218.776 62.763 217.852 59.0781 217.852 54.7031V17.125H229.57V54.7031C229.57 57.2552 229.974 59.3385 230.781 60.9531C231.589 62.5677 232.747 63.7526 234.258 64.5078C235.794 65.263 237.604 65.6406 239.688 65.6406C241.823 65.6406 243.633 65.263 245.117 64.5078C246.628 63.7526 247.773 62.5677 248.555 60.9531C249.362 59.3385 249.766 57.2552 249.766 54.7031V17.125ZM307.656 64.8594V74H279.023V64.8594H307.656ZM282.812 17.125V74H271.094V17.125H282.812ZM330.898 17.125V74H319.219V17.125H330.898ZM348.398 17.125V26.3047H301.992V17.125H348.398ZM393.242 64.8594V74H362.969V64.8594H393.242ZM366.797 17.125V74H355.078V17.125H366.797ZM389.297 40.2891V49.1953H362.969V40.2891H389.297ZM393.203 17.125V26.3047H362.969V17.125H393.203ZM433.047 55.1328H444.727C444.492 58.9609 443.438 62.3594 441.562 65.3281C439.714 68.2969 437.122 70.6146 433.789 72.2812C430.482 73.9479 426.497 74.7812 421.836 74.7812C418.19 74.7812 414.922 74.1562 412.031 72.9062C409.141 71.6302 406.667 69.8073 404.609 67.4375C402.578 65.0677 401.029 62.2031 399.961 58.8438C398.893 55.4844 398.359 51.7214 398.359 47.5547V43.6094C398.359 39.4427 398.906 35.6797 400 32.3203C401.12 28.9349 402.708 26.0573 404.766 23.6875C406.849 21.3177 409.336 19.4948 412.227 18.2188C415.117 16.9427 418.346 16.3047 421.914 16.3047C426.654 16.3047 430.651 17.1641 433.906 18.8828C437.188 20.6016 439.727 22.9714 441.523 25.9922C443.346 29.013 444.44 32.4505 444.805 36.3047H433.086C432.956 34.013 432.5 32.0729 431.719 30.4844C430.938 28.8698 429.753 27.6589 428.164 26.8516C426.602 26.0182 424.518 25.6016 421.914 25.6016C419.961 25.6016 418.255 25.9661 416.797 26.6953C415.339 27.4245 414.115 28.5312 413.125 30.0156C412.135 31.5 411.393 33.375 410.898 35.6406C410.43 37.8802 410.195 40.5104 410.195 43.5312V47.5547C410.195 50.4974 410.417 53.0885 410.859 55.3281C411.302 57.5417 411.979 59.4167 412.891 60.9531C413.828 62.4635 415.026 63.6094 416.484 64.3906C417.969 65.1458 419.753 65.5234 421.836 65.5234C424.284 65.5234 426.302 65.1328 427.891 64.3516C429.479 63.5703 430.69 62.4115 431.523 60.875C432.383 59.3385 432.891 57.4245 433.047 55.1328Z" fill="#2256F2"/>
<path d="M0 81.8125H447.344V85.7188H0V81.8125Z" fill="#2256F2"/>
</g>
<g filter="url(#filter1_i_17_72)">
<path d="M10.8281 113.908H13.5137C13.4277 114.932 13.1413 115.845 12.6543 116.647C12.1673 117.442 11.4834 118.069 10.6025 118.527C9.72168 118.986 8.65104 119.215 7.39062 119.215C6.42383 119.215 5.55371 119.043 4.78027 118.699C4.00684 118.348 3.3444 117.854 2.79297 117.217C2.24154 116.572 1.81901 115.795 1.52539 114.886C1.23893 113.976 1.0957 112.959 1.0957 111.835V110.535C1.0957 109.411 1.24251 108.394 1.53613 107.484C1.83691 106.575 2.2666 105.798 2.8252 105.153C3.38379 104.502 4.05339 104.004 4.83398 103.66C5.62174 103.316 6.50618 103.145 7.4873 103.145C8.7334 103.145 9.78613 103.374 10.6455 103.832C11.5049 104.29 12.1709 104.924 12.6436 105.733C13.1234 106.543 13.417 107.47 13.5244 108.516H10.8389C10.7673 107.842 10.6097 107.266 10.3662 106.786C10.1299 106.306 9.77897 105.941 9.31348 105.69C8.84798 105.433 8.23926 105.304 7.4873 105.304C6.87142 105.304 6.33431 105.418 5.87598 105.647C5.41764 105.877 5.03451 106.213 4.72656 106.657C4.41862 107.101 4.18587 107.649 4.02832 108.301C3.87793 108.945 3.80273 109.683 3.80273 110.514V111.835C3.80273 112.623 3.87077 113.339 4.00684 113.983C4.15007 114.621 4.36491 115.169 4.65137 115.627C4.94499 116.085 5.31738 116.44 5.76855 116.69C6.21973 116.941 6.76042 117.066 7.39062 117.066C8.1569 117.066 8.77637 116.945 9.24902 116.701C9.72884 116.458 10.0905 116.103 10.334 115.638C10.5846 115.165 10.7493 114.589 10.8281 113.908ZM15.2109 113.317V113.07C15.2109 112.232 15.3327 111.455 15.5762 110.739C15.8197 110.016 16.1706 109.389 16.6289 108.859C17.0944 108.322 17.6602 107.907 18.3262 107.613C18.9993 107.312 19.7585 107.162 20.6035 107.162C21.4557 107.162 22.2148 107.312 22.8809 107.613C23.554 107.907 24.1234 108.322 24.5889 108.859C25.0544 109.389 25.4089 110.016 25.6523 110.739C25.8958 111.455 26.0176 112.232 26.0176 113.07V113.317C26.0176 114.155 25.8958 114.932 25.6523 115.648C25.4089 116.365 25.0544 116.991 24.5889 117.528C24.1234 118.058 23.5576 118.474 22.8916 118.774C22.2256 119.068 21.4701 119.215 20.625 119.215C19.7728 119.215 19.0101 119.068 18.3369 118.774C17.6709 118.474 17.1051 118.058 16.6396 117.528C16.1742 116.991 15.8197 116.365 15.5762 115.648C15.3327 114.932 15.2109 114.155 15.2109 113.317ZM17.7998 113.07V113.317C17.7998 113.84 17.8535 114.334 17.9609 114.8C18.0684 115.265 18.2367 115.674 18.4658 116.024C18.695 116.375 18.9886 116.651 19.3467 116.852C19.7048 117.052 20.1309 117.152 20.625 117.152C21.1048 117.152 21.5202 117.052 21.8711 116.852C22.2292 116.651 22.5228 116.375 22.752 116.024C22.9811 115.674 23.1494 115.265 23.2568 114.8C23.3714 114.334 23.4287 113.84 23.4287 113.317V113.07C23.4287 112.555 23.3714 112.068 23.2568 111.609C23.1494 111.144 22.9775 110.732 22.7412 110.374C22.512 110.016 22.2184 109.737 21.8604 109.536C21.5094 109.328 21.0905 109.225 20.6035 109.225C20.1165 109.225 19.694 109.328 19.3359 109.536C18.985 109.737 18.695 110.016 18.4658 110.374C18.2367 110.732 18.0684 111.144 17.9609 111.609C17.8535 112.068 17.7998 112.555 17.7998 113.07ZM30.7549 109.858V119H28.166V107.377H30.6045L30.7549 109.858ZM30.293 112.759L29.4551 112.748C29.4622 111.924 29.5768 111.169 29.7988 110.481C30.028 109.794 30.3431 109.203 30.7441 108.709C31.1523 108.215 31.6393 107.835 32.2051 107.57C32.7708 107.298 33.401 107.162 34.0957 107.162C34.6543 107.162 35.1592 107.241 35.6104 107.398C36.0687 107.549 36.459 107.796 36.7812 108.14C37.1107 108.483 37.3613 108.931 37.5332 109.482C37.7051 110.027 37.791 110.696 37.791 111.491V119H35.1914V111.48C35.1914 110.922 35.109 110.481 34.9443 110.159C34.7868 109.83 34.554 109.597 34.2461 109.461C33.9453 109.318 33.5693 109.246 33.1182 109.246C32.6742 109.246 32.2767 109.339 31.9258 109.525C31.5749 109.712 31.2777 109.966 31.0342 110.288C30.7979 110.61 30.6152 110.983 30.4863 111.405C30.3574 111.828 30.293 112.279 30.293 112.759ZM45.7617 107.377V109.268H39.209V107.377H45.7617ZM41.0996 104.53H43.6885V115.788C43.6885 116.146 43.7386 116.422 43.8389 116.615C43.9463 116.801 44.0931 116.927 44.2793 116.991C44.4655 117.056 44.6839 117.088 44.9346 117.088C45.1136 117.088 45.2855 117.077 45.4502 117.056C45.6149 117.034 45.7474 117.013 45.8477 116.991L45.8584 118.968C45.6436 119.032 45.3929 119.09 45.1064 119.14C44.8271 119.19 44.5049 119.215 44.1396 119.215C43.5452 119.215 43.0189 119.111 42.5605 118.903C42.1022 118.688 41.7441 118.341 41.4863 117.861C41.2285 117.382 41.0996 116.744 41.0996 115.949V104.53ZM54.3125 116.669V111.126C54.3125 110.711 54.2373 110.353 54.0869 110.052C53.9365 109.751 53.7074 109.518 53.3994 109.354C53.0986 109.189 52.7191 109.106 52.2607 109.106C51.8382 109.106 51.473 109.178 51.165 109.321C50.8571 109.465 50.6172 109.658 50.4453 109.901C50.2734 110.145 50.1875 110.421 50.1875 110.729H47.6094C47.6094 110.27 47.7204 109.826 47.9424 109.396C48.1644 108.967 48.4867 108.584 48.9092 108.247C49.3317 107.91 49.8366 107.646 50.4238 107.452C51.0111 107.259 51.6699 107.162 52.4004 107.162C53.2741 107.162 54.0475 107.309 54.7207 107.603C55.401 107.896 55.9346 108.34 56.3213 108.935C56.7152 109.522 56.9121 110.259 56.9121 111.147V116.314C56.9121 116.844 56.9479 117.321 57.0195 117.743C57.0983 118.159 57.2093 118.52 57.3525 118.828V119H54.6992C54.5775 118.721 54.4808 118.366 54.4092 117.937C54.3447 117.5 54.3125 117.077 54.3125 116.669ZM54.6885 111.932L54.71 113.532H52.8516C52.3717 113.532 51.9492 113.579 51.584 113.672C51.2188 113.758 50.9144 113.887 50.6709 114.059C50.4274 114.23 50.2448 114.438 50.123 114.682C50.0013 114.925 49.9404 115.201 49.9404 115.509C49.9404 115.817 50.012 116.1 50.1553 116.357C50.2985 116.608 50.5062 116.805 50.7783 116.948C51.0576 117.091 51.3942 117.163 51.7881 117.163C52.318 117.163 52.7799 117.056 53.1738 116.841C53.5749 116.619 53.89 116.35 54.1191 116.035C54.3483 115.713 54.4701 115.409 54.4844 115.122L55.3223 116.271C55.2363 116.565 55.0895 116.88 54.8818 117.217C54.6742 117.553 54.402 117.876 54.0654 118.184C53.736 118.484 53.3385 118.731 52.873 118.925C52.4147 119.118 51.8848 119.215 51.2832 119.215C50.5241 119.215 49.8473 119.064 49.2529 118.764C48.6585 118.456 48.193 118.044 47.8564 117.528C47.5199 117.006 47.3516 116.415 47.3516 115.756C47.3516 115.14 47.4661 114.596 47.6953 114.123C47.9316 113.643 48.2754 113.242 48.7266 112.92C49.1849 112.598 49.7435 112.354 50.4023 112.189C51.0612 112.018 51.8132 111.932 52.6582 111.932H54.6885ZM59.6299 102.5H62.2188V116.519L61.9717 119H59.6299V102.5ZM69.8027 113.081V113.307C69.8027 114.166 69.7061 114.957 69.5127 115.681C69.3265 116.397 69.04 117.02 68.6533 117.55C68.2738 118.08 67.8011 118.492 67.2354 118.785C66.6768 119.072 66.0286 119.215 65.291 119.215C64.5677 119.215 63.9375 119.079 63.4004 118.807C62.8633 118.535 62.4121 118.148 62.0469 117.646C61.6888 117.145 61.3988 116.547 61.1768 115.853C60.9548 115.158 60.7972 114.392 60.7041 113.554V112.834C60.7972 111.989 60.9548 111.223 61.1768 110.535C61.3988 109.84 61.6888 109.243 62.0469 108.741C62.4121 108.233 62.8597 107.842 63.3896 107.57C63.9268 107.298 64.5534 107.162 65.2695 107.162C66.0143 107.162 66.6696 107.305 67.2354 107.592C67.8083 107.878 68.2845 108.286 68.6641 108.816C69.0436 109.339 69.3265 109.962 69.5127 110.686C69.7061 111.409 69.8027 112.207 69.8027 113.081ZM67.2139 113.307V113.081C67.2139 112.558 67.1709 112.068 67.085 111.609C66.999 111.144 66.8558 110.736 66.6553 110.385C66.4619 110.034 66.1969 109.758 65.8604 109.558C65.5309 109.35 65.1191 109.246 64.625 109.246C64.1667 109.246 63.7728 109.325 63.4434 109.482C63.1139 109.64 62.8382 109.855 62.6162 110.127C62.3942 110.399 62.2188 110.714 62.0898 111.072C61.9681 111.43 61.8857 111.817 61.8428 112.232V114.177C61.9072 114.714 62.0433 115.208 62.251 115.659C62.4658 116.103 62.7666 116.461 63.1533 116.733C63.54 116.998 64.0378 117.131 64.6465 117.131C65.1263 117.131 65.5309 117.034 65.8604 116.841C66.1898 116.647 66.4512 116.379 66.6445 116.035C66.8451 115.684 66.9883 115.276 67.0742 114.811C67.1673 114.345 67.2139 113.844 67.2139 113.307ZM74.7656 107.377V119H72.166V107.377H74.7656ZM71.9941 104.326C71.9941 103.932 72.123 103.606 72.3809 103.349C72.6458 103.084 73.0111 102.951 73.4766 102.951C73.9349 102.951 74.2965 103.084 74.5615 103.349C74.8265 103.606 74.959 103.932 74.959 104.326C74.959 104.713 74.8265 105.035 74.5615 105.293C74.2965 105.551 73.9349 105.68 73.4766 105.68C73.0111 105.68 72.6458 105.551 72.3809 105.293C72.123 105.035 71.9941 104.713 71.9941 104.326ZM80.373 102.5V119H77.7734V102.5H80.373ZM85.9805 107.377V119H83.3809V107.377H85.9805ZM83.209 104.326C83.209 103.932 83.3379 103.606 83.5957 103.349C83.8607 103.084 84.2259 102.951 84.6914 102.951C85.1497 102.951 85.5114 103.084 85.7764 103.349C86.0413 103.606 86.1738 103.932 86.1738 104.326C86.1738 104.713 86.0413 105.035 85.7764 105.293C85.5114 105.551 85.1497 105.68 84.6914 105.68C84.2259 105.68 83.8607 105.551 83.5957 105.293C83.3379 105.035 83.209 104.713 83.209 104.326ZM95.9062 116.594V102.5H98.5059V119H96.1533L95.9062 116.594ZM88.3438 113.317V113.092C88.3438 112.211 88.4476 111.409 88.6553 110.686C88.863 109.955 89.1637 109.328 89.5576 108.806C89.9515 108.276 90.4313 107.871 90.9971 107.592C91.5628 107.305 92.2002 107.162 92.9092 107.162C93.611 107.162 94.2269 107.298 94.7568 107.57C95.2868 107.842 95.738 108.233 96.1104 108.741C96.4827 109.243 96.7799 109.844 97.002 110.546C97.224 111.241 97.3815 112.014 97.4746 112.866V113.586C97.3815 114.417 97.224 115.176 97.002 115.863C96.7799 116.551 96.4827 117.145 96.1104 117.646C95.738 118.148 95.2832 118.535 94.7461 118.807C94.2161 119.079 93.5967 119.215 92.8877 119.215C92.1859 119.215 91.5521 119.068 90.9863 118.774C90.4277 118.481 89.9515 118.069 89.5576 117.539C89.1637 117.009 88.863 116.386 88.6553 115.67C88.4476 114.947 88.3438 114.162 88.3438 113.317ZM90.9326 113.092V113.317C90.9326 113.847 90.9792 114.341 91.0723 114.8C91.1725 115.258 91.3265 115.663 91.5342 116.014C91.7419 116.357 92.0104 116.63 92.3398 116.83C92.6764 117.023 93.0775 117.12 93.543 117.12C94.1302 117.12 94.6136 116.991 94.9932 116.733C95.3727 116.476 95.6699 116.128 95.8848 115.691C96.1068 115.247 96.2572 114.753 96.3359 114.209V112.265C96.293 111.842 96.2035 111.448 96.0674 111.083C95.9385 110.718 95.763 110.399 95.541 110.127C95.319 109.848 95.0433 109.633 94.7139 109.482C94.3916 109.325 94.0085 109.246 93.5645 109.246C93.0918 109.246 92.6908 109.346 92.3613 109.547C92.0319 109.747 91.7598 110.023 91.5449 110.374C91.3372 110.725 91.1833 111.133 91.083 111.599C90.9827 112.064 90.9326 112.562 90.9326 113.092ZM107.766 116.669V111.126C107.766 110.711 107.69 110.353 107.54 110.052C107.39 109.751 107.16 109.518 106.853 109.354C106.552 109.189 106.172 109.106 105.714 109.106C105.291 109.106 104.926 109.178 104.618 109.321C104.31 109.465 104.07 109.658 103.898 109.901C103.727 110.145 103.641 110.421 103.641 110.729H101.062C101.062 110.27 101.174 109.826 101.396 109.396C101.618 108.967 101.94 108.584 102.362 108.247C102.785 107.91 103.29 107.646 103.877 107.452C104.464 107.259 105.123 107.162 105.854 107.162C106.727 107.162 107.501 107.309 108.174 107.603C108.854 107.896 109.388 108.34 109.774 108.935C110.168 109.522 110.365 110.259 110.365 111.147V116.314C110.365 116.844 110.401 117.321 110.473 117.743C110.551 118.159 110.662 118.52 110.806 118.828V119H108.152C108.031 118.721 107.934 118.366 107.862 117.937C107.798 117.5 107.766 117.077 107.766 116.669ZM108.142 111.932L108.163 113.532H106.305C105.825 113.532 105.402 113.579 105.037 113.672C104.672 113.758 104.368 113.887 104.124 114.059C103.881 114.23 103.698 114.438 103.576 114.682C103.454 114.925 103.394 115.201 103.394 115.509C103.394 115.817 103.465 116.1 103.608 116.357C103.752 116.608 103.959 116.805 104.231 116.948C104.511 117.091 104.847 117.163 105.241 117.163C105.771 117.163 106.233 117.056 106.627 116.841C107.028 116.619 107.343 116.35 107.572 116.035C107.801 115.713 107.923 115.409 107.938 115.122L108.775 116.271C108.689 116.565 108.543 116.88 108.335 117.217C108.127 117.553 107.855 117.876 107.519 118.184C107.189 118.484 106.792 118.731 106.326 118.925C105.868 119.118 105.338 119.215 104.736 119.215C103.977 119.215 103.3 119.064 102.706 118.764C102.112 118.456 101.646 118.044 101.31 117.528C100.973 117.006 100.805 116.415 100.805 115.756C100.805 115.14 100.919 114.596 101.148 114.123C101.385 113.643 101.729 113.242 102.18 112.92C102.638 112.598 103.197 112.354 103.855 112.189C104.514 112.018 105.266 111.932 106.111 111.932H108.142ZM120.162 116.594V102.5H122.762V119H120.409L120.162 116.594ZM112.6 113.317V113.092C112.6 112.211 112.703 111.409 112.911 110.686C113.119 109.955 113.42 109.328 113.813 108.806C114.207 108.276 114.687 107.871 115.253 107.592C115.819 107.305 116.456 107.162 117.165 107.162C117.867 107.162 118.483 107.298 119.013 107.57C119.543 107.842 119.994 108.233 120.366 108.741C120.739 109.243 121.036 109.844 121.258 110.546C121.48 111.241 121.637 112.014 121.73 112.866V113.586C121.637 114.417 121.48 115.176 121.258 115.863C121.036 116.551 120.739 117.145 120.366 117.646C119.994 118.148 119.539 118.535 119.002 118.807C118.472 119.079 117.853 119.215 117.144 119.215C116.442 119.215 115.808 119.068 115.242 118.774C114.684 118.481 114.207 118.069 113.813 117.539C113.42 117.009 113.119 116.386 112.911 115.67C112.703 114.947 112.6 114.162 112.6 113.317ZM115.188 113.092V113.317C115.188 113.847 115.235 114.341 115.328 114.8C115.428 115.258 115.582 115.663 115.79 116.014C115.998 116.357 116.266 116.63 116.596 116.83C116.932 117.023 117.333 117.12 117.799 117.12C118.386 117.12 118.869 116.991 119.249 116.733C119.629 116.476 119.926 116.128 120.141 115.691C120.363 115.247 120.513 114.753 120.592 114.209V112.265C120.549 111.842 120.459 111.448 120.323 111.083C120.194 110.718 120.019 110.399 119.797 110.127C119.575 109.848 119.299 109.633 118.97 109.482C118.647 109.325 118.264 109.246 117.82 109.246C117.348 109.246 116.947 109.346 116.617 109.547C116.288 109.747 116.016 110.023 115.801 110.374C115.593 110.725 115.439 111.133 115.339 111.599C115.239 112.064 115.188 112.562 115.188 113.092ZM130.593 119.215C129.733 119.215 128.956 119.075 128.262 118.796C127.574 118.509 126.987 118.112 126.5 117.604C126.02 117.095 125.651 116.497 125.394 115.81C125.136 115.122 125.007 114.381 125.007 113.586V113.156C125.007 112.247 125.139 111.423 125.404 110.686C125.669 109.948 126.038 109.318 126.511 108.795C126.983 108.265 127.542 107.86 128.187 107.581C128.831 107.302 129.529 107.162 130.281 107.162C131.112 107.162 131.839 107.302 132.462 107.581C133.085 107.86 133.601 108.254 134.009 108.763C134.424 109.264 134.732 109.862 134.933 110.557C135.14 111.251 135.244 112.018 135.244 112.855V113.962H126.264V112.104H132.688V111.899C132.673 111.434 132.58 110.997 132.408 110.589C132.243 110.181 131.989 109.851 131.646 109.601C131.302 109.35 130.843 109.225 130.271 109.225C129.841 109.225 129.458 109.318 129.121 109.504C128.792 109.683 128.516 109.944 128.294 110.288C128.072 110.632 127.9 111.047 127.778 111.534C127.664 112.014 127.606 112.555 127.606 113.156V113.586C127.606 114.094 127.674 114.567 127.811 115.004C127.954 115.434 128.161 115.81 128.434 116.132C128.706 116.454 129.035 116.708 129.422 116.895C129.809 117.074 130.249 117.163 130.743 117.163C131.366 117.163 131.921 117.038 132.408 116.787C132.895 116.536 133.318 116.182 133.676 115.724L135.04 117.045C134.789 117.41 134.464 117.761 134.062 118.098C133.661 118.427 133.171 118.696 132.591 118.903C132.018 119.111 131.352 119.215 130.593 119.215ZM148.94 113.167H144.869V111.029H148.94C149.649 111.029 150.222 110.915 150.659 110.686C151.096 110.456 151.415 110.141 151.615 109.74C151.823 109.332 151.927 108.867 151.927 108.344C151.927 107.85 151.823 107.388 151.615 106.958C151.415 106.521 151.096 106.17 150.659 105.905C150.222 105.64 149.649 105.508 148.94 105.508H145.696V119H143V103.359H148.94C150.151 103.359 151.178 103.574 152.023 104.004C152.876 104.426 153.524 105.014 153.968 105.766C154.412 106.51 154.634 107.363 154.634 108.322C154.634 109.332 154.412 110.199 153.968 110.922C153.524 111.645 152.876 112.2 152.023 112.587C151.178 112.974 150.151 113.167 148.94 113.167ZM159.393 109.59V119H156.804V107.377H159.274L159.393 109.59ZM162.948 107.302L162.927 109.708C162.769 109.679 162.597 109.658 162.411 109.644C162.232 109.629 162.053 109.622 161.874 109.622C161.43 109.622 161.04 109.687 160.703 109.815C160.367 109.937 160.084 110.116 159.854 110.353C159.632 110.582 159.461 110.861 159.339 111.19C159.217 111.52 159.146 111.889 159.124 112.297L158.533 112.34C158.533 111.609 158.605 110.933 158.748 110.31C158.891 109.687 159.106 109.139 159.393 108.666C159.686 108.193 160.051 107.825 160.488 107.56C160.932 107.295 161.444 107.162 162.024 107.162C162.182 107.162 162.35 107.176 162.529 107.205C162.715 107.234 162.855 107.266 162.948 107.302ZM163.797 113.317V113.07C163.797 112.232 163.919 111.455 164.162 110.739C164.406 110.016 164.757 109.389 165.215 108.859C165.68 108.322 166.246 107.907 166.912 107.613C167.585 107.312 168.344 107.162 169.189 107.162C170.042 107.162 170.801 107.312 171.467 107.613C172.14 107.907 172.709 108.322 173.175 108.859C173.64 109.389 173.995 110.016 174.238 110.739C174.482 111.455 174.604 112.232 174.604 113.07V113.317C174.604 114.155 174.482 114.932 174.238 115.648C173.995 116.365 173.64 116.991 173.175 117.528C172.709 118.058 172.144 118.474 171.478 118.774C170.812 119.068 170.056 119.215 169.211 119.215C168.359 119.215 167.596 119.068 166.923 118.774C166.257 118.474 165.691 118.058 165.226 117.528C164.76 116.991 164.406 116.365 164.162 115.648C163.919 114.932 163.797 114.155 163.797 113.317ZM166.386 113.07V113.317C166.386 113.84 166.439 114.334 166.547 114.8C166.654 115.265 166.823 115.674 167.052 116.024C167.281 116.375 167.575 116.651 167.933 116.852C168.291 117.052 168.717 117.152 169.211 117.152C169.691 117.152 170.106 117.052 170.457 116.852C170.815 116.651 171.109 116.375 171.338 116.024C171.567 115.674 171.735 115.265 171.843 114.8C171.957 114.334 172.015 113.84 172.015 113.317V113.07C172.015 112.555 171.957 112.068 171.843 111.609C171.735 111.144 171.563 110.732 171.327 110.374C171.098 110.016 170.804 109.737 170.446 109.536C170.095 109.328 169.676 109.225 169.189 109.225C168.702 109.225 168.28 109.328 167.922 109.536C167.571 109.737 167.281 110.016 167.052 110.374C166.823 110.732 166.654 111.144 166.547 111.609C166.439 112.068 166.386 112.555 166.386 113.07ZM180.104 119H177.504V106.625C177.504 105.687 177.69 104.896 178.062 104.251C178.442 103.606 178.983 103.116 179.685 102.779C180.394 102.443 181.235 102.274 182.209 102.274C182.782 102.274 183.333 102.335 183.863 102.457C184.4 102.579 184.955 102.733 185.528 102.919L185.131 105.024C184.766 104.903 184.361 104.788 183.917 104.681C183.473 104.566 182.961 104.509 182.381 104.509C181.6 104.509 181.024 104.688 180.651 105.046C180.286 105.397 180.104 105.923 180.104 106.625V119ZM182.435 107.377V109.268H175.721V107.377H182.435ZM186.753 107.377V119H184.164V107.377H186.753ZM196.163 115.853C196.163 115.595 196.099 115.362 195.97 115.154C195.841 114.939 195.594 114.746 195.229 114.574C194.87 114.402 194.34 114.245 193.639 114.102C193.023 113.965 192.457 113.804 191.941 113.618C191.433 113.425 190.996 113.192 190.631 112.92C190.266 112.648 189.983 112.326 189.782 111.953C189.582 111.581 189.481 111.151 189.481 110.664C189.481 110.191 189.585 109.744 189.793 109.321C190.001 108.899 190.298 108.526 190.685 108.204C191.071 107.882 191.54 107.628 192.092 107.441C192.65 107.255 193.273 107.162 193.961 107.162C194.935 107.162 195.769 107.327 196.464 107.656C197.166 107.979 197.703 108.419 198.075 108.978C198.448 109.529 198.634 110.152 198.634 110.847H196.045C196.045 110.539 195.966 110.252 195.809 109.987C195.658 109.715 195.429 109.497 195.121 109.332C194.813 109.16 194.426 109.074 193.961 109.074C193.517 109.074 193.148 109.146 192.854 109.289C192.568 109.425 192.353 109.604 192.21 109.826C192.074 110.048 192.006 110.292 192.006 110.557C192.006 110.75 192.042 110.925 192.113 111.083C192.192 111.233 192.321 111.373 192.5 111.502C192.679 111.624 192.923 111.738 193.23 111.846C193.546 111.953 193.939 112.057 194.412 112.157C195.3 112.343 196.063 112.583 196.7 112.877C197.345 113.163 197.839 113.536 198.183 113.994C198.526 114.445 198.698 115.018 198.698 115.713C198.698 116.229 198.587 116.701 198.365 117.131C198.15 117.553 197.835 117.922 197.42 118.237C197.005 118.545 196.507 118.785 195.927 118.957C195.354 119.129 194.709 119.215 193.993 119.215C192.94 119.215 192.049 119.029 191.318 118.656C190.588 118.277 190.033 117.793 189.653 117.206C189.281 116.612 189.095 115.996 189.095 115.358H191.598C191.626 115.838 191.759 116.221 191.995 116.508C192.239 116.787 192.539 116.991 192.897 117.12C193.263 117.242 193.639 117.303 194.025 117.303C194.491 117.303 194.881 117.242 195.196 117.12C195.511 116.991 195.751 116.819 195.916 116.604C196.081 116.382 196.163 116.132 196.163 115.853ZM207.485 115.853C207.485 115.595 207.421 115.362 207.292 115.154C207.163 114.939 206.916 114.746 206.551 114.574C206.193 114.402 205.663 114.245 204.961 114.102C204.345 113.965 203.779 113.804 203.264 113.618C202.755 113.425 202.318 113.192 201.953 112.92C201.588 112.648 201.305 112.326 201.104 111.953C200.904 111.581 200.804 111.151 200.804 110.664C200.804 110.191 200.908 109.744 201.115 109.321C201.323 108.899 201.62 108.526 202.007 108.204C202.394 107.882 202.863 107.628 203.414 107.441C203.973 107.255 204.596 107.162 205.283 107.162C206.257 107.162 207.091 107.327 207.786 107.656C208.488 107.979 209.025 108.419 209.397 108.978C209.77 109.529 209.956 110.152 209.956 110.847H207.367C207.367 110.539 207.288 110.252 207.131 109.987C206.98 109.715 206.751 109.497 206.443 109.332C206.135 109.16 205.749 109.074 205.283 109.074C204.839 109.074 204.47 109.146 204.177 109.289C203.89 109.425 203.675 109.604 203.532 109.826C203.396 110.048 203.328 110.292 203.328 110.557C203.328 110.75 203.364 110.925 203.436 111.083C203.514 111.233 203.643 111.373 203.822 111.502C204.001 111.624 204.245 111.738 204.553 111.846C204.868 111.953 205.262 112.057 205.734 112.157C206.622 112.343 207.385 112.583 208.022 112.877C208.667 113.163 209.161 113.536 209.505 113.994C209.849 114.445 210.021 115.018 210.021 115.713C210.021 116.229 209.91 116.701 209.688 117.131C209.473 117.553 209.158 117.922 208.742 118.237C208.327 118.545 207.829 118.785 207.249 118.957C206.676 119.129 206.032 119.215 205.315 119.215C204.263 119.215 203.371 119.029 202.641 118.656C201.91 118.277 201.355 117.793 200.976 117.206C200.603 116.612 200.417 115.996 200.417 115.358H202.92C202.949 115.838 203.081 116.221 203.317 116.508C203.561 116.787 203.862 116.991 204.22 117.12C204.585 117.242 204.961 117.303 205.348 117.303C205.813 117.303 206.203 117.242 206.519 117.12C206.834 116.991 207.074 116.819 207.238 116.604C207.403 116.382 207.485 116.132 207.485 115.853ZM215.059 107.377V119H212.459V107.377H215.059ZM212.287 104.326C212.287 103.932 212.416 103.606 212.674 103.349C212.939 103.084 213.304 102.951 213.77 102.951C214.228 102.951 214.59 103.084 214.854 103.349C215.119 103.606 215.252 103.932 215.252 104.326C215.252 104.713 215.119 105.035 214.854 105.293C214.59 105.551 214.228 105.68 213.77 105.68C213.304 105.68 212.939 105.551 212.674 105.293C212.416 105.035 212.287 104.713 212.287 104.326ZM217.4 113.317V113.07C217.4 112.232 217.522 111.455 217.766 110.739C218.009 110.016 218.36 109.389 218.818 108.859C219.284 108.322 219.85 107.907 220.516 107.613C221.189 107.312 221.948 107.162 222.793 107.162C223.645 107.162 224.404 107.312 225.07 107.613C225.743 107.907 226.313 108.322 226.778 108.859C227.244 109.389 227.598 110.016 227.842 110.739C228.085 111.455 228.207 112.232 228.207 113.07V113.317C228.207 114.155 228.085 114.932 227.842 115.648C227.598 116.365 227.244 116.991 226.778 117.528C226.313 118.058 225.747 118.474 225.081 118.774C224.415 119.068 223.66 119.215 222.814 119.215C221.962 119.215 221.2 119.068 220.526 118.774C219.86 118.474 219.295 118.058 218.829 117.528C218.364 116.991 218.009 116.365 217.766 115.648C217.522 114.932 217.4 114.155 217.4 113.317ZM219.989 113.07V113.317C219.989 113.84 220.043 114.334 220.15 114.8C220.258 115.265 220.426 115.674 220.655 116.024C220.884 116.375 221.178 116.651 221.536 116.852C221.894 117.052 222.32 117.152 222.814 117.152C223.294 117.152 223.71 117.052 224.061 116.852C224.419 116.651 224.712 116.375 224.941 116.024C225.171 115.674 225.339 115.265 225.446 114.8C225.561 114.334 225.618 113.84 225.618 113.317V113.07C225.618 112.555 225.561 112.068 225.446 111.609C225.339 111.144 225.167 110.732 224.931 110.374C224.701 110.016 224.408 109.737 224.05 109.536C223.699 109.328 223.28 109.225 222.793 109.225C222.306 109.225 221.883 109.328 221.525 109.536C221.174 109.737 220.884 110.016 220.655 110.374C220.426 110.732 220.258 111.144 220.15 111.609C220.043 112.068 219.989 112.555 219.989 113.07ZM232.944 109.858V119H230.355V107.377H232.794L232.944 109.858ZM232.482 112.759L231.645 112.748C231.652 111.924 231.766 111.169 231.988 110.481C232.217 109.794 232.533 109.203 232.934 108.709C233.342 108.215 233.829 107.835 234.395 107.57C234.96 107.298 235.59 107.162 236.285 107.162C236.844 107.162 237.349 107.241 237.8 107.398C238.258 107.549 238.648 107.796 238.971 108.14C239.3 108.483 239.551 108.931 239.723 109.482C239.895 110.027 239.98 110.696 239.98 111.491V119H237.381V111.48C237.381 110.922 237.299 110.481 237.134 110.159C236.976 109.83 236.743 109.597 236.436 109.461C236.135 109.318 235.759 109.246 235.308 109.246C234.864 109.246 234.466 109.339 234.115 109.525C233.764 109.712 233.467 109.966 233.224 110.288C232.987 110.61 232.805 110.983 232.676 111.405C232.547 111.828 232.482 112.279 232.482 112.759ZM249.176 116.669V111.126C249.176 110.711 249.101 110.353 248.95 110.052C248.8 109.751 248.571 109.518 248.263 109.354C247.962 109.189 247.582 109.106 247.124 109.106C246.701 109.106 246.336 109.178 246.028 109.321C245.72 109.465 245.48 109.658 245.309 109.901C245.137 110.145 245.051 110.421 245.051 110.729H242.473C242.473 110.27 242.584 109.826 242.806 109.396C243.028 108.967 243.35 108.584 243.772 108.247C244.195 107.91 244.7 107.646 245.287 107.452C245.874 107.259 246.533 107.162 247.264 107.162C248.137 107.162 248.911 107.309 249.584 107.603C250.264 107.896 250.798 108.34 251.185 108.935C251.578 109.522 251.775 110.259 251.775 111.147V116.314C251.775 116.844 251.811 117.321 251.883 117.743C251.962 118.159 252.073 118.52 252.216 118.828V119H249.562C249.441 118.721 249.344 118.366 249.272 117.937C249.208 117.5 249.176 117.077 249.176 116.669ZM249.552 111.932L249.573 113.532H247.715C247.235 113.532 246.812 113.579 246.447 113.672C246.082 113.758 245.778 113.887 245.534 114.059C245.291 114.23 245.108 114.438 244.986 114.682C244.865 114.925 244.804 115.201 244.804 115.509C244.804 115.817 244.875 116.1 245.019 116.357C245.162 116.608 245.369 116.805 245.642 116.948C245.921 117.091 246.257 117.163 246.651 117.163C247.181 117.163 247.643 117.056 248.037 116.841C248.438 116.619 248.753 116.35 248.982 116.035C249.212 115.713 249.333 115.409 249.348 115.122L250.186 116.271C250.1 116.565 249.953 116.88 249.745 117.217C249.537 117.553 249.265 117.876 248.929 118.184C248.599 118.484 248.202 118.731 247.736 118.925C247.278 119.118 246.748 119.215 246.146 119.215C245.387 119.215 244.711 119.064 244.116 118.764C243.522 118.456 243.056 118.044 242.72 117.528C242.383 117.006 242.215 116.415 242.215 115.756C242.215 115.14 242.329 114.596 242.559 114.123C242.795 113.643 243.139 113.242 243.59 112.92C244.048 112.598 244.607 112.354 245.266 112.189C245.924 112.018 246.676 111.932 247.521 111.932H249.552ZM257.254 102.5V119H254.654V102.5H257.254ZM262.518 116.508L262.507 118.355C262.507 119.086 262.324 119.838 261.959 120.611C261.594 121.385 261.11 122.022 260.509 122.523L259.123 121.718C259.324 121.396 259.506 121.07 259.671 120.74C259.836 120.411 259.968 120.06 260.068 119.688C260.169 119.315 260.219 118.903 260.219 118.452V116.508H262.518ZM278.975 114.972C278.975 114.649 278.924 114.363 278.824 114.112C278.731 113.862 278.563 113.632 278.319 113.425C278.076 113.217 277.732 113.017 277.288 112.823C276.851 112.623 276.293 112.419 275.612 112.211C274.868 111.982 274.18 111.728 273.55 111.448C272.927 111.162 272.382 110.832 271.917 110.46C271.451 110.08 271.09 109.647 270.832 109.16C270.574 108.666 270.445 108.097 270.445 107.452C270.445 106.815 270.578 106.235 270.843 105.712C271.115 105.189 271.498 104.738 271.992 104.358C272.493 103.972 273.084 103.674 273.765 103.467C274.445 103.252 275.197 103.145 276.021 103.145C277.181 103.145 278.18 103.359 279.018 103.789C279.863 104.219 280.511 104.795 280.962 105.519C281.42 106.242 281.649 107.04 281.649 107.914H278.975C278.975 107.398 278.864 106.944 278.642 106.55C278.427 106.149 278.097 105.834 277.653 105.604C277.216 105.375 276.661 105.261 275.988 105.261C275.351 105.261 274.821 105.357 274.398 105.551C273.976 105.744 273.661 106.006 273.453 106.335C273.245 106.664 273.142 107.037 273.142 107.452C273.142 107.746 273.21 108.014 273.346 108.258C273.482 108.494 273.689 108.716 273.969 108.924C274.248 109.124 274.599 109.314 275.021 109.493C275.444 109.672 275.942 109.844 276.515 110.009C277.381 110.267 278.137 110.553 278.781 110.868C279.426 111.176 279.963 111.527 280.393 111.921C280.822 112.315 281.145 112.762 281.359 113.264C281.574 113.758 281.682 114.32 281.682 114.95C281.682 115.609 281.549 116.203 281.284 116.733C281.019 117.256 280.64 117.704 280.146 118.076C279.659 118.441 279.071 118.724 278.384 118.925C277.703 119.118 276.944 119.215 276.106 119.215C275.354 119.215 274.613 119.115 273.883 118.914C273.16 118.714 272.501 118.409 271.906 118.001C271.312 117.586 270.839 117.07 270.488 116.454C270.137 115.831 269.962 115.104 269.962 114.273H272.658C272.658 114.782 272.744 115.215 272.916 115.573C273.095 115.931 273.342 116.225 273.657 116.454C273.972 116.676 274.338 116.841 274.753 116.948C275.175 117.056 275.627 117.109 276.106 117.109C276.737 117.109 277.263 117.02 277.686 116.841C278.115 116.662 278.438 116.411 278.652 116.089C278.867 115.767 278.975 115.394 278.975 114.972ZM283.314 113.317V113.07C283.314 112.232 283.436 111.455 283.68 110.739C283.923 110.016 284.274 109.389 284.732 108.859C285.198 108.322 285.764 107.907 286.43 107.613C287.103 107.312 287.862 107.162 288.707 107.162C289.559 107.162 290.318 107.312 290.984 107.613C291.658 107.907 292.227 108.322 292.692 108.859C293.158 109.389 293.512 110.016 293.756 110.739C293.999 111.455 294.121 112.232 294.121 113.07V113.317C294.121 114.155 293.999 114.932 293.756 115.648C293.512 116.365 293.158 116.991 292.692 117.528C292.227 118.058 291.661 118.474 290.995 118.774C290.329 119.068 289.574 119.215 288.729 119.215C287.876 119.215 287.114 119.068 286.44 118.774C285.774 118.474 285.209 118.058 284.743 117.528C284.278 116.991 283.923 116.365 283.68 115.648C283.436 114.932 283.314 114.155 283.314 113.317ZM285.903 113.07V113.317C285.903 113.84 285.957 114.334 286.064 114.8C286.172 115.265 286.34 115.674 286.569 116.024C286.799 116.375 287.092 116.651 287.45 116.852C287.808 117.052 288.234 117.152 288.729 117.152C289.208 117.152 289.624 117.052 289.975 116.852C290.333 116.651 290.626 116.375 290.855 116.024C291.085 115.674 291.253 115.265 291.36 114.8C291.475 114.334 291.532 113.84 291.532 113.317V113.07C291.532 112.555 291.475 112.068 291.36 111.609C291.253 111.144 291.081 110.732 290.845 110.374C290.616 110.016 290.322 109.737 289.964 109.536C289.613 109.328 289.194 109.225 288.707 109.225C288.22 109.225 287.798 109.328 287.439 109.536C287.089 109.737 286.799 110.016 286.569 110.374C286.34 110.732 286.172 111.144 286.064 111.609C285.957 112.068 285.903 112.555 285.903 113.07ZM299.062 102.5V119H296.463V102.5H299.062ZM308.892 116.261V107.377H311.491V119H309.042L308.892 116.261ZM309.257 113.844L310.127 113.822C310.127 114.603 310.041 115.323 309.869 115.981C309.697 116.633 309.432 117.202 309.074 117.689C308.716 118.169 308.258 118.545 307.699 118.817C307.141 119.082 306.471 119.215 305.69 119.215C305.125 119.215 304.605 119.132 304.133 118.968C303.66 118.803 303.252 118.549 302.908 118.205C302.572 117.861 302.31 117.414 302.124 116.862C301.938 116.311 301.845 115.652 301.845 114.886V107.377H304.434V114.907C304.434 115.33 304.484 115.684 304.584 115.971C304.684 116.25 304.82 116.476 304.992 116.647C305.164 116.819 305.365 116.941 305.594 117.013C305.823 117.084 306.066 117.12 306.324 117.12C307.062 117.12 307.642 116.977 308.064 116.69C308.494 116.397 308.799 116.003 308.978 115.509C309.164 115.015 309.257 114.46 309.257 113.844ZM318.893 117.152C319.315 117.152 319.695 117.07 320.031 116.905C320.375 116.733 320.651 116.497 320.858 116.196C321.073 115.896 321.191 115.548 321.213 115.154H323.651C323.637 115.906 323.415 116.59 322.985 117.206C322.556 117.822 321.986 118.312 321.277 118.678C320.568 119.036 319.784 119.215 318.925 119.215C318.037 119.215 317.263 119.064 316.604 118.764C315.946 118.456 315.398 118.033 314.961 117.496C314.524 116.959 314.195 116.34 313.973 115.638C313.758 114.936 313.65 114.184 313.65 113.382V113.006C313.65 112.204 313.758 111.452 313.973 110.75C314.195 110.041 314.524 109.418 314.961 108.881C315.398 108.344 315.946 107.925 316.604 107.624C317.263 107.316 318.033 107.162 318.914 107.162C319.845 107.162 320.661 107.348 321.363 107.721C322.065 108.086 322.617 108.598 323.018 109.257C323.426 109.909 323.637 110.668 323.651 111.534H321.213C321.191 111.104 321.084 110.718 320.891 110.374C320.704 110.023 320.439 109.744 320.096 109.536C319.759 109.328 319.354 109.225 318.882 109.225C318.359 109.225 317.926 109.332 317.582 109.547C317.238 109.755 316.97 110.041 316.776 110.406C316.583 110.764 316.443 111.169 316.357 111.62C316.279 112.064 316.239 112.526 316.239 113.006V113.382C316.239 113.862 316.279 114.327 316.357 114.778C316.436 115.229 316.572 115.634 316.766 115.992C316.966 116.343 317.238 116.626 317.582 116.841C317.926 117.049 318.363 117.152 318.893 117.152ZM317.754 119.021H319.677L319.548 119.623C319.956 119.695 320.328 119.867 320.665 120.139C321.009 120.418 321.181 120.866 321.181 121.481C321.181 121.847 321.105 122.176 320.955 122.47C320.805 122.763 320.579 123.014 320.278 123.222C319.985 123.437 319.616 123.601 319.172 123.716C318.735 123.83 318.227 123.888 317.646 123.888L317.571 122.427C317.851 122.427 318.101 122.391 318.323 122.319C318.545 122.255 318.721 122.151 318.85 122.008C318.986 121.865 319.054 121.678 319.054 121.449C319.054 121.227 318.996 121.055 318.882 120.934C318.767 120.812 318.588 120.719 318.345 120.654C318.108 120.59 317.8 120.543 317.421 120.515L317.754 119.021ZM325.145 113.317V113.07C325.145 112.232 325.266 111.455 325.51 110.739C325.753 110.016 326.104 109.389 326.562 108.859C327.028 108.322 327.594 107.907 328.26 107.613C328.933 107.312 329.692 107.162 330.537 107.162C331.389 107.162 332.148 107.312 332.814 107.613C333.488 107.907 334.057 108.322 334.522 108.859C334.988 109.389 335.342 110.016 335.586 110.739C335.829 111.455 335.951 112.232 335.951 113.07V113.317C335.951 114.155 335.829 114.932 335.586 115.648C335.342 116.365 334.988 116.991 334.522 117.528C334.057 118.058 333.491 118.474 332.825 118.774C332.159 119.068 331.404 119.215 330.559 119.215C329.706 119.215 328.944 119.068 328.271 118.774C327.604 118.474 327.039 118.058 326.573 117.528C326.108 116.991 325.753 116.365 325.51 115.648C325.266 114.932 325.145 114.155 325.145 113.317ZM327.733 113.07V113.317C327.733 113.84 327.787 114.334 327.895 114.8C328.002 115.265 328.17 115.674 328.399 116.024C328.629 116.375 328.922 116.651 329.28 116.852C329.638 117.052 330.064 117.152 330.559 117.152C331.038 117.152 331.454 117.052 331.805 116.852C332.163 116.651 332.456 116.375 332.686 116.024C332.915 115.674 333.083 115.265 333.19 114.8C333.305 114.334 333.362 113.84 333.362 113.317V113.07C333.362 112.555 333.305 112.068 333.19 111.609C333.083 111.144 332.911 110.732 332.675 110.374C332.446 110.016 332.152 109.737 331.794 109.536C331.443 109.328 331.024 109.225 330.537 109.225C330.05 109.225 329.628 109.328 329.27 109.536C328.919 109.737 328.629 110.016 328.399 110.374C328.17 110.732 328.002 111.144 327.895 111.609C327.787 112.068 327.733 112.555 327.733 113.07ZM332.847 102.629L334.426 102.747C334.426 103.27 334.322 103.739 334.114 104.154C333.907 104.562 333.624 104.885 333.266 105.121C332.908 105.357 332.503 105.476 332.052 105.476C331.701 105.476 331.404 105.425 331.16 105.325C330.917 105.225 330.695 105.11 330.494 104.981C330.294 104.853 330.086 104.742 329.871 104.648C329.663 104.548 329.416 104.498 329.13 104.498C328.858 104.498 328.625 104.598 328.432 104.799C328.245 104.999 328.152 105.268 328.152 105.604L326.562 105.519C326.562 105.003 326.666 104.537 326.874 104.122C327.082 103.707 327.365 103.377 327.723 103.134C328.081 102.89 328.485 102.769 328.937 102.769C329.23 102.769 329.495 102.819 329.731 102.919C329.975 103.012 330.204 103.123 330.419 103.252C330.641 103.381 330.867 103.495 331.096 103.596C331.325 103.696 331.579 103.746 331.858 103.746C332.131 103.746 332.363 103.642 332.557 103.435C332.75 103.227 332.847 102.958 332.847 102.629ZM343.245 119.215C342.386 119.215 341.609 119.075 340.914 118.796C340.227 118.509 339.639 118.112 339.152 117.604C338.673 117.095 338.304 116.497 338.046 115.81C337.788 115.122 337.659 114.381 337.659 113.586V113.156C337.659 112.247 337.792 111.423 338.057 110.686C338.322 109.948 338.69 109.318 339.163 108.795C339.636 108.265 340.194 107.86 340.839 107.581C341.483 107.302 342.182 107.162 342.934 107.162C343.764 107.162 344.491 107.302 345.114 107.581C345.737 107.86 346.253 108.254 346.661 108.763C347.076 109.264 347.384 109.862 347.585 110.557C347.793 111.251 347.896 112.018 347.896 112.855V113.962H338.916V112.104H345.34V111.899C345.326 111.434 345.232 110.997 345.061 110.589C344.896 110.181 344.642 109.851 344.298 109.601C343.954 109.35 343.496 109.225 342.923 109.225C342.493 109.225 342.11 109.318 341.773 109.504C341.444 109.683 341.168 109.944 340.946 110.288C340.724 110.632 340.552 111.047 340.431 111.534C340.316 112.014 340.259 112.555 340.259 113.156V113.586C340.259 114.094 340.327 114.567 340.463 115.004C340.606 115.434 340.814 115.81 341.086 116.132C341.358 116.454 341.688 116.708 342.074 116.895C342.461 117.074 342.901 117.163 343.396 117.163C344.019 117.163 344.574 117.038 345.061 116.787C345.548 116.536 345.97 116.182 346.328 115.724L347.692 117.045C347.442 117.41 347.116 117.761 346.715 118.098C346.314 118.427 345.823 118.696 345.243 118.903C344.67 119.111 344.004 119.215 343.245 119.215ZM356.437 115.853C356.437 115.595 356.372 115.362 356.243 115.154C356.114 114.939 355.867 114.746 355.502 114.574C355.144 114.402 354.614 114.245 353.912 114.102C353.296 113.965 352.73 113.804 352.215 113.618C351.706 113.425 351.27 113.192 350.904 112.92C350.539 112.648 350.256 112.326 350.056 111.953C349.855 111.581 349.755 111.151 349.755 110.664C349.755 110.191 349.859 109.744 350.066 109.321C350.274 108.899 350.571 108.526 350.958 108.204C351.345 107.882 351.814 107.628 352.365 107.441C352.924 107.255 353.547 107.162 354.234 107.162C355.208 107.162 356.043 107.327 356.737 107.656C357.439 107.979 357.976 108.419 358.349 108.978C358.721 109.529 358.907 110.152 358.907 110.847H356.318C356.318 110.539 356.24 110.252 356.082 109.987C355.932 109.715 355.702 109.497 355.395 109.332C355.087 109.16 354.7 109.074 354.234 109.074C353.79 109.074 353.422 109.146 353.128 109.289C352.841 109.425 352.627 109.604 352.483 109.826C352.347 110.048 352.279 110.292 352.279 110.557C352.279 110.75 352.315 110.925 352.387 111.083C352.465 111.233 352.594 111.373 352.773 111.502C352.952 111.624 353.196 111.738 353.504 111.846C353.819 111.953 354.213 112.057 354.686 112.157C355.574 112.343 356.336 112.583 356.974 112.877C357.618 113.163 358.112 113.536 358.456 113.994C358.8 114.445 358.972 115.018 358.972 115.713C358.972 116.229 358.861 116.701 358.639 117.131C358.424 117.553 358.109 117.922 357.693 118.237C357.278 118.545 356.78 118.785 356.2 118.957C355.627 119.129 354.983 119.215 354.267 119.215C353.214 119.215 352.322 119.029 351.592 118.656C350.861 118.277 350.306 117.793 349.927 117.206C349.554 116.612 349.368 115.996 349.368 115.358H351.871C351.9 115.838 352.032 116.221 352.269 116.508C352.512 116.787 352.813 116.991 353.171 117.12C353.536 117.242 353.912 117.303 354.299 117.303C354.764 117.303 355.155 117.242 355.47 117.12C355.785 116.991 356.025 116.819 356.189 116.604C356.354 116.382 356.437 116.132 356.437 115.853ZM375.203 114.972C375.203 114.649 375.153 114.363 375.053 114.112C374.96 113.862 374.791 113.632 374.548 113.425C374.304 113.217 373.961 113.017 373.517 112.823C373.08 112.623 372.521 112.419 371.841 112.211C371.096 111.982 370.409 111.728 369.778 111.448C369.155 111.162 368.611 110.832 368.146 110.46C367.68 110.08 367.318 109.647 367.061 109.16C366.803 108.666 366.674 108.097 366.674 107.452C366.674 106.815 366.806 106.235 367.071 105.712C367.343 105.189 367.727 104.738 368.221 104.358C368.722 103.972 369.313 103.674 369.993 103.467C370.674 103.252 371.425 103.145 372.249 103.145C373.409 103.145 374.408 103.359 375.246 103.789C376.091 104.219 376.739 104.795 377.19 105.519C377.649 106.242 377.878 107.04 377.878 107.914H375.203C375.203 107.398 375.092 106.944 374.87 106.55C374.655 106.149 374.326 105.834 373.882 105.604C373.445 105.375 372.89 105.261 372.217 105.261C371.579 105.261 371.049 105.357 370.627 105.551C370.204 105.744 369.889 106.006 369.682 106.335C369.474 106.664 369.37 107.037 369.37 107.452C369.37 107.746 369.438 108.014 369.574 108.258C369.71 108.494 369.918 108.716 370.197 108.924C370.477 109.124 370.827 109.314 371.25 109.493C371.673 109.672 372.17 109.844 372.743 110.009C373.61 110.267 374.365 110.553 375.01 110.868C375.654 111.176 376.191 111.527 376.621 111.921C377.051 112.315 377.373 112.762 377.588 113.264C377.803 113.758 377.91 114.32 377.91 114.95C377.91 115.609 377.778 116.203 377.513 116.733C377.248 117.256 376.868 117.704 376.374 118.076C375.887 118.441 375.3 118.724 374.612 118.925C373.932 119.118 373.173 119.215 372.335 119.215C371.583 119.215 370.842 119.115 370.111 118.914C369.388 118.714 368.729 118.409 368.135 118.001C367.54 117.586 367.068 117.07 366.717 116.454C366.366 115.831 366.19 115.104 366.19 114.273H368.887C368.887 114.782 368.973 115.215 369.145 115.573C369.324 115.931 369.571 116.225 369.886 116.454C370.201 116.676 370.566 116.841 370.981 116.948C371.404 117.056 371.855 117.109 372.335 117.109C372.965 117.109 373.492 117.02 373.914 116.841C374.344 116.662 374.666 116.411 374.881 116.089C375.096 115.767 375.203 115.394 375.203 114.972ZM379.543 113.317V113.07C379.543 112.232 379.665 111.455 379.908 110.739C380.152 110.016 380.503 109.389 380.961 108.859C381.426 108.322 381.992 107.907 382.658 107.613C383.331 107.312 384.09 107.162 384.936 107.162C385.788 107.162 386.547 107.312 387.213 107.613C387.886 107.907 388.455 108.322 388.921 108.859C389.386 109.389 389.741 110.016 389.984 110.739C390.228 111.455 390.35 112.232 390.35 113.07V113.317C390.35 114.155 390.228 114.932 389.984 115.648C389.741 116.365 389.386 116.991 388.921 117.528C388.455 118.058 387.89 118.474 387.224 118.774C386.558 119.068 385.802 119.215 384.957 119.215C384.105 119.215 383.342 119.068 382.669 118.774C382.003 118.474 381.437 118.058 380.972 117.528C380.506 116.991 380.152 116.365 379.908 115.648C379.665 114.932 379.543 114.155 379.543 113.317ZM382.132 113.07V113.317C382.132 113.84 382.186 114.334 382.293 114.8C382.4 115.265 382.569 115.674 382.798 116.024C383.027 116.375 383.321 116.651 383.679 116.852C384.037 117.052 384.463 117.152 384.957 117.152C385.437 117.152 385.852 117.052 386.203 116.852C386.561 116.651 386.855 116.375 387.084 116.024C387.313 115.674 387.481 115.265 387.589 114.8C387.703 114.334 387.761 113.84 387.761 113.317V113.07C387.761 112.555 387.703 112.068 387.589 111.609C387.481 111.144 387.31 110.732 387.073 110.374C386.844 110.016 386.55 109.737 386.192 109.536C385.841 109.328 385.423 109.225 384.936 109.225C384.449 109.225 384.026 109.328 383.668 109.536C383.317 109.737 383.027 110.016 382.798 110.374C382.569 110.732 382.4 111.144 382.293 111.609C382.186 112.068 382.132 112.555 382.132 113.07ZM383.582 105.733L385.677 102.5H388.599L385.677 105.733H383.582ZM395.291 102.5V119H392.691V102.5H395.291ZM400.898 107.377V119H398.299V107.377H400.898ZM398.127 104.326C398.127 103.932 398.256 103.606 398.514 103.349C398.779 103.084 399.144 102.951 399.609 102.951C400.068 102.951 400.429 103.084 400.694 103.349C400.959 103.606 401.092 103.932 401.092 104.326C401.092 104.713 400.959 105.035 400.694 105.293C400.429 105.551 400.068 105.68 399.609 105.68C399.144 105.68 398.779 105.551 398.514 105.293C398.256 105.035 398.127 104.713 398.127 104.326ZM410.824 116.594V102.5H413.424V119H411.071L410.824 116.594ZM403.262 113.317V113.092C403.262 112.211 403.366 111.409 403.573 110.686C403.781 109.955 404.082 109.328 404.476 108.806C404.869 108.276 405.349 107.871 405.915 107.592C406.481 107.305 407.118 107.162 407.827 107.162C408.529 107.162 409.145 107.298 409.675 107.57C410.205 107.842 410.656 108.233 411.028 108.741C411.401 109.243 411.698 109.844 411.92 110.546C412.142 111.241 412.299 112.014 412.393 112.866V113.586C412.299 114.417 412.142 115.176 411.92 115.863C411.698 116.551 411.401 117.145 411.028 117.646C410.656 118.148 410.201 118.535 409.664 118.807C409.134 119.079 408.515 119.215 407.806 119.215C407.104 119.215 406.47 119.068 405.904 118.774C405.346 118.481 404.869 118.069 404.476 117.539C404.082 117.009 403.781 116.386 403.573 115.67C403.366 114.947 403.262 114.162 403.262 113.317ZM405.851 113.092V113.317C405.851 113.847 405.897 114.341 405.99 114.8C406.09 115.258 406.244 115.663 406.452 116.014C406.66 116.357 406.928 116.63 407.258 116.83C407.594 117.023 407.995 117.12 408.461 117.12C409.048 117.12 409.532 116.991 409.911 116.733C410.291 116.476 410.588 116.128 410.803 115.691C411.025 115.247 411.175 114.753 411.254 114.209V112.265C411.211 111.842 411.121 111.448 410.985 111.083C410.856 110.718 410.681 110.399 410.459 110.127C410.237 109.848 409.961 109.633 409.632 109.482C409.31 109.325 408.926 109.246 408.482 109.246C408.01 109.246 407.609 109.346 407.279 109.547C406.95 109.747 406.678 110.023 406.463 110.374C406.255 110.725 406.101 111.133 406.001 111.599C405.901 112.064 405.851 112.562 405.851 113.092ZM422.684 116.669V111.126C422.684 110.711 422.608 110.353 422.458 110.052C422.308 109.751 422.078 109.518 421.771 109.354C421.47 109.189 421.09 109.106 420.632 109.106C420.209 109.106 419.844 109.178 419.536 109.321C419.228 109.465 418.988 109.658 418.816 109.901C418.645 110.145 418.559 110.421 418.559 110.729H415.98C415.98 110.27 416.091 109.826 416.313 109.396C416.535 108.967 416.858 108.584 417.28 108.247C417.703 107.91 418.208 107.646 418.795 107.452C419.382 107.259 420.041 107.162 420.771 107.162C421.645 107.162 422.419 107.309 423.092 107.603C423.772 107.896 424.306 108.34 424.692 108.935C425.086 109.522 425.283 110.259 425.283 111.147V116.314C425.283 116.844 425.319 117.321 425.391 117.743C425.469 118.159 425.58 118.52 425.724 118.828V119H423.07C422.949 118.721 422.852 118.366 422.78 117.937C422.716 117.5 422.684 117.077 422.684 116.669ZM423.06 111.932L423.081 113.532H421.223C420.743 113.532 420.32 113.579 419.955 113.672C419.59 113.758 419.285 113.887 419.042 114.059C418.799 114.23 418.616 114.438 418.494 114.682C418.372 114.925 418.312 115.201 418.312 115.509C418.312 115.817 418.383 116.1 418.526 116.357C418.67 116.608 418.877 116.805 419.149 116.948C419.429 117.091 419.765 117.163 420.159 117.163C420.689 117.163 421.151 117.056 421.545 116.841C421.946 116.619 422.261 116.35 422.49 116.035C422.719 115.713 422.841 115.409 422.855 115.122L423.693 116.271C423.607 116.565 423.461 116.88 423.253 117.217C423.045 117.553 422.773 117.876 422.437 118.184C422.107 118.484 421.71 118.731 421.244 118.925C420.786 119.118 420.256 119.215 419.654 119.215C418.895 119.215 418.218 119.064 417.624 118.764C417.03 118.456 416.564 118.044 416.228 117.528C415.891 117.006 415.723 116.415 415.723 115.756C415.723 115.14 415.837 114.596 416.066 114.123C416.303 113.643 416.646 113.242 417.098 112.92C417.556 112.598 418.115 112.354 418.773 112.189C419.432 112.018 420.184 111.932 421.029 111.932H423.06ZM434.511 115.853C434.511 115.595 434.446 115.362 434.317 115.154C434.188 114.939 433.941 114.746 433.576 114.574C433.218 114.402 432.688 114.245 431.986 114.102C431.37 113.965 430.805 113.804 430.289 113.618C429.781 113.425 429.344 113.192 428.979 112.92C428.613 112.648 428.33 112.326 428.13 111.953C427.929 111.581 427.829 111.151 427.829 110.664C427.829 110.191 427.933 109.744 428.141 109.321C428.348 108.899 428.646 108.526 429.032 108.204C429.419 107.882 429.888 107.628 430.439 107.441C430.998 107.255 431.621 107.162 432.309 107.162C433.283 107.162 434.117 107.327 434.812 107.656C435.513 107.979 436.05 108.419 436.423 108.978C436.795 109.529 436.981 110.152 436.981 110.847H434.393C434.393 110.539 434.314 110.252 434.156 109.987C434.006 109.715 433.777 109.497 433.469 109.332C433.161 109.16 432.774 109.074 432.309 109.074C431.865 109.074 431.496 109.146 431.202 109.289C430.916 109.425 430.701 109.604 430.558 109.826C430.422 110.048 430.354 110.292 430.354 110.557C430.354 110.75 430.389 110.925 430.461 111.083C430.54 111.233 430.669 111.373 430.848 111.502C431.027 111.624 431.27 111.738 431.578 111.846C431.893 111.953 432.287 112.057 432.76 112.157C433.648 112.343 434.41 112.583 435.048 112.877C435.692 113.163 436.187 113.536 436.53 113.994C436.874 114.445 437.046 115.018 437.046 115.713C437.046 116.229 436.935 116.701 436.713 117.131C436.498 117.553 436.183 117.922 435.768 118.237C435.352 118.545 434.854 118.785 434.274 118.957C433.701 119.129 433.057 119.215 432.341 119.215C431.288 119.215 430.396 119.029 429.666 118.656C428.936 118.277 428.381 117.793 428.001 117.206C427.629 116.612 427.442 115.996 427.442 115.358H429.945C429.974 115.838 430.106 116.221 430.343 116.508C430.586 116.787 430.887 116.991 431.245 117.12C431.61 117.242 431.986 117.303 432.373 117.303C432.839 117.303 433.229 117.242 433.544 117.12C433.859 116.991 434.099 116.819 434.264 116.604C434.428 116.382 434.511 116.132 434.511 115.853ZM442.299 103.359L442.041 114.392H439.828L439.56 103.359H442.299ZM439.484 117.775C439.484 117.382 439.613 117.052 439.871 116.787C440.136 116.515 440.501 116.379 440.967 116.379C441.425 116.379 441.787 116.515 442.052 116.787C442.317 117.052 442.449 117.382 442.449 117.775C442.449 118.155 442.317 118.481 442.052 118.753C441.787 119.018 441.425 119.15 440.967 119.15C440.501 119.15 440.136 119.018 439.871 118.753C439.613 118.481 439.484 118.155 439.484 117.775Z" fill="#757578"/>
</g>
<defs>
<filter id="filter0_i_17_72" x="0" y="16.3047" width="447.344" height="73.4141" filterUnits="userSpaceOnUse" color-interpolation-filters="sRGB">
<feFlood flood-opacity="0" result="BackgroundImageFix"/>
<feBlend mode="normal" in="SourceGraphic" in2="BackgroundImageFix" result="shape"/>
<feColorMatrix in="SourceAlpha" type="matrix" values="0 0 0 0 0 0 0 0 0 0 0 0 0 0 0 0 0 0 127 0" result="hardAlpha"/>
<feOffset dy="4"/>
<feGaussianBlur stdDeviation="2"/>
<feComposite in2="hardAlpha" operator="arithmetic" k2="-1" k3="1"/>
<feColorMatrix type="matrix" values="0 0 0 0 0 0 0 0 0 0 0 0 0 0 0 0 0 0 0.25 0"/>
<feBlend mode="normal" in2="shape" result="effect1_innerShadow_17_72"/>
</filter>
<filter id="filter1_i_17_72" x="1.0957" y="102.274" width="441.354" height="25.6133" filterUnits="userSpaceOnUse" color-interpolation-filters="sRGB">
<feFlood flood-opacity="0" result="BackgroundImageFix"/>
<feBlend mode="normal" in="SourceGraphic" in2="BackgroundImageFix" result="shape"/>
<feColorMatrix in="SourceAlpha" type="matrix" values="0 0 0 0 0 0 0 0 0 0 0 0 0 0 0 0 0 0 127 0" result="hardAlpha"/>
<feOffset dy="4"/>
<feGaussianBlur stdDeviation="2"/>
<feComposite in2="hardAlpha" operator="arithmetic" k2="-1" k3="1"/>
<feColorMatrix type="matrix" values="0 0 0 0 0 0 0 0 0 0 0 0 0 0 0 0 0 0 0.25 0"/>
<feBlend mode="normal" in2="shape" result="effect1_innerShadow_17_72"/>
</filter>
</defs>
</svg>
